# xmcd
#
# Track frame offsets:
#	150
#	13137
#	41149
#	58202
#	76782
#	100021
#	110998
#	128557
#	144273
#	160451
#	182265
#	197325
#	219035
#	235019
#	262002
#	285379
#
# Disc length: 4094 seconds
#
# Revision: 1
# Processed by: cddbd v1.5.2PL0 Copyright (c) Steve Scherf et al.
# Submitted via: audiograbber 1.83.01
#
DISCID=d30ffc10
DTITLE=Willy Michl - Bootlegger 2014 Best of add on Review
DYEAR=2014
DGENRE=Blues
TTITLE0=Wakan Tanka
TTITLE1=High Fly
TTITLE2=Schwabing
TTITLE3=Sonnenuntergang
TTITLE4=Katmandu (California Version)
TTITLE5=Johnny B. Goode
TTITLE6=Opas Rap
TTITLE7=Protein Tango
TTITLE8=Stein der Weisen
TTITLE9=Zeche
TTITLE10=Bobfahrerlied
TTITLE11=Una Bella Signorina
TTITLE12=Willy`s Liebeslied
TTITLE13=Nordische Mädchen
TTITLE14=Indianer
TTITLE15=Isarflimmern
EXTD=
EXTT0=
EXTT1=
EXTT2=
EXTT3=
EXTT4=
EXTT5=
EXTT6=
EXTT7=
EXTT8=
EXTT9=
EXTT10=
EXTT11=
EXTT12=
EXTT13=
EXTT14=
EXTT15=
PLAYORDER=
